<svg width="26" height="26" viewBox="0 0 26 26" fill="none" xmlns="http://www.w3.org/2000/svg">
<g id="apple 1" clip-path="url(#clip0_1434_9496)">
<g id="Group">
<g id="Group_2">
<path id="Vector" d="M17.6864 0.820312C16.3536 0.912499 14.7958 1.76562 13.888 2.87655C13.0599 3.88436 12.3786 5.38122 12.6443 6.8359C14.1005 6.88121 15.6052 6.00778 16.477 4.8781C17.2927 3.82654 17.9098 2.33905 17.6864 0.820312Z" fill="black"/>
</g>
</g>
<g id="Group_3">
<g id="Group_4">
<path id="Vector_2" d="M22.9538 9.2078C21.6741 7.60312 19.8757 6.67188 18.1773 6.67188C15.9351 6.67188 14.9866 7.74531 13.4288 7.74531C11.8226 7.74531 10.6023 6.675 8.66324 6.675C6.75857 6.675 4.73045 7.83906 3.44452 9.82967C1.63672 12.6328 1.9461 17.9031 4.87577 22.3921C5.9242 23.9983 7.32419 25.8046 9.15543 25.8202C10.7851 25.8358 11.2445 24.7749 13.4523 24.764C15.6601 24.7515 16.0788 25.8343 17.7054 25.8171C19.5382 25.803 21.0147 23.8015 22.0632 22.1952C22.8147 21.0437 23.0944 20.464 23.6772 19.164C19.4382 17.5499 18.7585 11.5218 22.9538 9.2078Z" fill="black"/>
</g>
</g>
</g>
<defs>
<clipPath id="clip0_1434_9496">
<rect width="25" height="25" fill="white" transform="translate(0.5 0.820312)"/>
</clipPath>
</defs>
</svg>
