<svg width="26" height="26" viewBox="0 0 26 26" fill="none" xmlns="http://www.w3.org/2000/svg">
<g id="google 1" clip-path="url(#clip0_1434_9487)">
<path id="Vector" d="M24.5565 11.147L14.3592 11.1465C13.9089 11.1465 13.5439 11.5114 13.5439 11.9617V15.2193C13.5439 15.6695 13.9089 16.0345 14.3592 16.0345H20.1017C19.4729 17.6664 18.2992 19.0331 16.8019 19.9014L19.2504 24.1401C23.1783 21.8685 25.5004 17.8827 25.5004 13.4209C25.5004 12.7856 25.4536 12.3314 25.36 11.8201C25.2888 11.4315 24.9515 11.147 24.5565 11.147Z" fill="#167EE6"/>
<path id="Vector_2" d="M13.0004 20.929C10.1902 20.929 7.73687 19.3936 6.41924 17.1215L2.18066 19.5645C4.33765 23.3029 8.37837 25.8203 13.0004 25.8203C15.2679 25.8203 17.4074 25.2098 19.2504 24.1459V24.1401L16.8019 19.9013C15.6818 20.551 14.3857 20.929 13.0004 20.929Z" fill="#12B347"/>
<path id="Vector_3" d="M19.25 24.1459V24.1401L16.8014 19.9014C15.6814 20.5509 14.3854 20.9291 13 20.9291V25.8204C15.2674 25.8204 17.407 25.2099 19.25 24.1459Z" fill="#0F993E"/>
<path id="Vector_4" d="M5.39131 13.3204C5.39131 11.9352 5.76934 10.6392 6.4188 9.51924L2.18022 7.07617C1.11045 8.91343 0.5 11.0471 0.5 13.3204C0.5 15.5936 1.11045 17.7273 2.18022 19.5646L6.4188 17.1215C5.76934 16.0015 5.39131 14.7056 5.39131 13.3204Z" fill="#FFD500"/>
<path id="Vector_5" d="M13.0004 5.71162C14.833 5.71162 16.5163 6.36279 17.8311 7.44595C18.1555 7.71313 18.6269 7.69385 18.924 7.39673L21.2321 5.08862C21.5692 4.75151 21.5452 4.19971 21.1851 3.88731C18.9822 1.97622 16.116 0.820312 13.0004 0.820312C8.37837 0.820312 4.33765 3.33774 2.18066 7.07612L6.41924 9.51919C7.73687 7.24707 10.1902 5.71162 13.0004 5.71162Z" fill="#FF4B26"/>
<path id="Vector_6" d="M17.8307 7.44595C18.155 7.71313 18.6265 7.69385 18.9236 7.39673L21.2317 5.08862C21.5688 4.75151 21.5447 4.19971 21.1847 3.8873C18.9818 1.97617 16.1156 0.820312 13 0.820312V5.71162C14.8325 5.71162 16.5159 6.36279 17.8307 7.44595Z" fill="#D93F21"/>
</g>
<defs>
<clipPath id="clip0_1434_9487">
<rect width="25" height="25" fill="white" transform="translate(0.5 0.820312)"/>
</clipPath>
</defs>
</svg>
